<svg version="1.1" id="Layer_1" xmlns="http://www.w3.org/2000/svg" xmlns:xlink="http://www.w3.org/1999/xlink" x="0px" y="0px"
	 width="100%" viewBox="0 0 4037 4041" enable-background="new 0 0 4037 4041" xml:space="preserve">
<path fill="#073ECA" opacity="1.000000" stroke="none" 
	d="
M3534.000000,2.000000 
	C3615.389404,2.000000 3696.778809,2.000000 3779.624023,2.618674 
	C3794.185303,5.169776 3807.500244,6.201143 3820.361084,9.188383 
	C3880.437256,23.142809 3931.056152,53.322533 3971.500732,99.943825 
	C4005.543945,139.186172 4027.320068,184.504883 4036.270508,235.787613 
	C4037.900391,245.124298 4038.776123,254.592499 4040.000000,264.000000 
	C4040.000000,1436.056030 4040.000000,2608.112061 4039.382324,3781.645996 
	C4038.305908,3790.418457 4038.516357,3797.828369 4037.277588,3804.988037 
	C4029.931152,3847.444092 4014.389893,3886.646240 3989.421631,3921.894043 
	C3959.807617,3963.699951 3921.896240,3995.536133 3875.251221,4017.045410 
	C3845.405273,4030.808594 3814.078857,4038.582031 3780.735352,4042.050781 
	C3774.649902,4042.990967 3768.850098,4039.831543 3764.000000,4044.000000 
	C3619.943848,4044.000000 3475.887939,4044.000000 3330.916016,4043.080566 
	C3330.000000,3137.415283 3330.010254,2232.669434 3329.933350,1327.923584 
	C3329.931641,1308.008423 3331.516602,1288.007568 3328.775879,1267.954834 
	C3351.461426,1263.656006 3373.384766,1259.580200 3395.313721,1255.533447 
	C3469.955811,1241.758667 3544.673096,1228.377808 3619.225342,1214.132324 
	C3722.307373,1194.435547 3801.970215,1139.806152 3857.946045,1051.104736 
	C3887.624512,1004.074768 3904.962646,952.430176 3909.485596,897.097717 
	C3913.031250,853.724182 3909.872559,810.617554 3897.801514,768.383728 
	C3882.702393,715.556519 3857.305908,668.470947 3820.584961,627.658630 
	C3785.081543,588.199280 3743.060059,557.602295 3693.976807,537.057861 
	C3655.274658,520.858337 3615.128418,510.816376 3572.991943,509.803986 
	C3560.669189,509.507904 3548.339111,509.518463 3535.816895,508.613770 
	C3535.081055,502.582001 3534.071289,497.325226 3534.068604,492.067932 
	C3533.985107,328.711975 3534.000000,165.355988 3534.000000,2.000000 
z"/>
<path fill="#1851E8" opacity="1.000000" stroke="none" 
	d="
M2.000000,3780.000000 
	C2.000000,2608.613037 2.000000,1437.225830 2.000999,264.098083 
	C2.592579,261.249115 3.513095,260.199402 3.721938,259.023346 
	C5.515422,248.923843 6.809035,238.722443 8.944101,228.698914 
	C22.262596,166.172211 52.745079,113.537231 100.971268,71.517281 
	C141.274078,36.401031 188.006577,14.555803 240.790268,5.789698 
	C248.523346,4.505420 256.263245,3.262213 264.000000,2.000000 
	C386.720398,2.000000 509.440796,2.000000 633.080566,2.937315 
	C634.000000,581.472595 633.999878,1159.070557 634.001343,1736.668579 
	C634.001404,1740.334717 633.447510,1744.123413 634.193481,1747.633545 
	C634.982544,1751.346313 637.019165,1754.793945 637.862061,1758.804688 
	C602.841370,1765.538452 568.465759,1771.804932 534.098450,1778.116333 
	C493.510834,1785.570068 452.686768,1791.945312 412.388794,1800.730835 
	C230.652878,1840.352051 110.523270,2012.830811 136.508942,2197.276611 
	C149.202850,2287.377686 190.942398,2362.263184 260.787964,2420.761719 
	C317.254700,2468.055176 382.565491,2494.959473 456.763855,2502.172852 
	C478.381378,2504.670654 499.214630,2505.328369 520.679260,2501.882080 
	C522.228638,2501.979980 523.108887,2502.081543 523.992859,2503.094482 
	C523.997742,3017.337402 523.998840,3530.668701 524.000000,4044.000000 
	C443.279602,4044.000000 362.559204,4044.000000 280.342438,4043.395020 
	C263.692230,4041.129883 248.350937,4040.460449 233.417358,4037.635742 
	C171.948364,4026.008057 120.016678,3996.605957 77.697594,3950.746826 
	C50.325130,3921.084473 30.186718,3886.841553 17.649752,3847.693115 
	C17.109413,3845.406738 16.475136,3843.781982 15.870046,3842.130859 
	C15.899231,3842.104492 15.825661,3842.077148 15.874646,3841.288818 
	C13.546133,3832.241699 11.168633,3823.982910 8.608948,3815.118652 
	C8.352260,3813.673340 8.277758,3812.833252 8.378665,3811.539062 
	C7.965972,3809.296631 7.377869,3807.509033 6.609893,3805.021240 
	C6.354360,3802.878174 6.278700,3801.435303 6.396937,3799.754883 
	C6.699356,3798.821533 6.459648,3798.314453 5.795345,3797.299805 
	C5.670524,3795.203125 5.622067,3793.803223 5.662778,3791.597412 
	C5.275794,3786.925049 6.927697,3782.318848 2.000000,3780.000000 
z"/>
<path fill="#0A42D0" opacity="1.000000" stroke="none" 
	d="
M3328.016113,1268.191040 
	C3331.516602,1288.007568 3329.931641,1308.008423 3329.933350,1327.923584 
	C3330.010254,2232.669434 3330.000000,3137.415283 3330.000000,4043.080566 
	C3089.279541,4044.000000 2848.559326,4044.000000 2606.919434,4043.062744 
	C2606.000000,3297.585693 2606.000244,2553.045898 2605.999756,1808.505981 
	C2605.999756,1805.173218 2606.160156,1801.829590 2605.942383,1798.510986 
	C2605.748047,1795.550293 2605.577148,1792.457886 2604.591309,1789.712524 
	C2603.395508,1786.381592 2603.711914,1783.726196 2604.721191,1780.277344 
	C2606.297363,1774.892212 2608.670898,1768.602539 2602.341797,1763.197998 
	C2602.720947,1760.126343 2603.211670,1757.856934 2603.634277,1755.574829 
	C2613.600098,1701.750000 2623.609619,1647.933105 2633.487793,1594.092163 
	C2636.538574,1577.463867 2639.228271,1560.769043 2642.389160,1543.383545 
	C2651.788086,1493.921143 2660.889893,1445.181519 2669.965576,1396.437134 
	C2671.395508,1388.758545 2672.370117,1387.615479 2679.890381,1386.240601 
	C2702.475586,1382.111938 2725.072754,1378.051514 2747.660645,1373.936768 
	C2814.442871,1361.771240 2881.232666,1349.648193 2947.999756,1337.400024 
	C2993.166992,1329.114258 3038.287598,1320.576660 3083.451904,1312.274170 
	C3152.177734,1299.640137 3220.917480,1287.079468 3289.665771,1274.567749 
	C3302.413818,1272.247803 3315.230957,1270.306885 3328.016113,1268.191040 
z"/>
<path fill="#144DE2" opacity="1.000000" stroke="none" 
	d="
M638.510864,1758.357300 
	C637.019165,1754.793945 634.982544,1751.346313 634.193481,1747.633545 
	C633.447510,1744.123413 634.001404,1740.334717 634.001343,1736.668579 
	C633.999878,1159.070557 634.000000,581.472595 634.000000,2.937315 
	C862.708435,2.000000 1091.416870,2.000000 1321.062744,2.937315 
	C1322.000000,540.744446 1322.000000,1077.614258 1322.002808,1614.484009 
	C1322.002808,1618.149536 1322.067505,1621.815186 1322.057007,1625.480591 
	C1322.047485,1628.818359 1323.321289,1631.277344 1325.953369,1632.871948 
	C1256.349731,1645.950562 1187.407837,1658.619751 1118.455200,1671.229370 
	C1064.547974,1681.087646 1010.623169,1690.848877 956.714050,1700.696167 
	C909.071350,1709.398926 861.437927,1718.152710 813.803223,1726.899292 
	C765.212646,1735.821655 716.632812,1744.802979 668.030762,1753.662109 
	C658.231140,1755.448242 648.352844,1756.803345 638.510864,1758.357300 
z"/>
<path fill="#114ADC" opacity="1.000000" stroke="none" 
	d="
M1326.610352,1632.437012 
	C1323.321289,1631.277344 1322.047485,1628.818359 1322.057007,1625.480591 
	C1322.067505,1621.815186 1322.002808,1618.149536 1322.002808,1614.484009 
	C1322.000000,1077.614258 1322.000000,540.744446 1322.000000,2.937315 
	C1522.041748,2.000000 1722.083618,2.000000 1923.062744,2.937315 
	C1924.000000,491.456696 1923.999878,979.038757 1924.002319,1466.620850 
	C1924.002319,1470.286621 1924.065430,1473.952637 1924.049561,1477.618286 
	C1924.032104,1481.636475 1925.876099,1483.867676 1930.022705,1484.844971 
	C1927.847412,1498.327393 1925.648804,1510.964722 1922.701904,1523.817871 
	C1890.766479,1529.781982 1859.567017,1535.464600 1828.395386,1541.295776 
	C1791.904907,1548.121826 1755.458740,1555.186768 1718.953125,1561.929932 
	C1701.133911,1565.221680 1683.179688,1567.783203 1665.363037,1571.087280 
	C1621.365234,1579.246704 1577.434448,1587.768555 1533.431396,1595.899048 
	C1507.298218,1600.727661 1481.085571,1605.128052 1454.895020,1609.642090 
	C1445.848999,1611.201294 1436.761719,1612.521973 1427.115356,1613.922363 
	C1425.099976,1614.338745 1423.662598,1614.784180 1421.463867,1615.515625 
	C1419.623535,1615.826782 1418.544556,1615.851929 1416.823730,1615.853149 
	C1414.161865,1616.359375 1412.141846,1616.889526 1409.418701,1617.678467 
	C1407.722168,1617.946655 1406.728882,1617.956177 1405.150635,1617.934570 
	C1403.110229,1618.355103 1401.654785,1618.806885 1399.444824,1619.538574 
	C1397.623291,1619.840942 1396.556152,1619.863525 1394.844360,1619.860718 
	C1392.171021,1620.369385 1390.142212,1620.903687 1387.312988,1621.710205 
	C1378.801636,1623.269409 1371.090820,1624.556519 1362.751831,1625.823975 
	C1360.140381,1626.306763 1358.156860,1626.809326 1355.386475,1627.594238 
	C1349.208130,1628.656860 1343.816895,1629.437012 1337.862305,1630.202148 
	C1336.260254,1630.565430 1335.221313,1630.943970 1333.463867,1631.598877 
	C1330.700317,1632.062500 1328.655396,1632.249756 1326.610352,1632.437012 
z"/>
<path fill="#154EE3" opacity="1.000000" stroke="none" 
	d="
M524.925293,4044.000000 
	C523.998840,3530.668701 523.997742,3017.337402 524.779785,2502.834229 
	C549.056213,2497.662598 572.586487,2493.867432 596.035217,2489.621582 
	C649.994873,2479.851562 703.893188,2469.742432 757.857605,2459.999512 
	C803.288147,2451.796631 848.808594,2444.090820 894.229065,2435.833984 
	C925.609741,2430.129395 956.878235,2423.810547 988.214661,2417.859863 
	C1008.085693,2414.086670 1027.970703,2410.381104 1047.884033,2406.839111 
	C1065.226074,2403.754883 1082.616333,2400.942871 1099.989746,2398.935059 
	C1099.996094,2947.906494 1099.998047,3495.953125 1100.000000,4044.000000 
	C908.616882,4044.000000 717.233704,4044.000000 524.925293,4044.000000 
z"/>
<path fill="#124BDE" opacity="1.000000" stroke="none" 
	d="
M1100.925293,4044.000000 
	C1099.998047,3495.953125 1099.996094,2947.906494 1100.803223,2398.791016 
	C1114.295654,2395.117920 1126.942505,2392.317871 1139.670166,2389.951904 
	C1162.741577,2385.663818 1185.875000,2381.710449 1208.957520,2377.480469 
	C1257.562988,2368.573730 1306.146240,2359.544678 1354.750732,2350.632080 
	C1382.511719,2345.541504 1410.304199,2340.622070 1438.068359,2335.548584 
	C1457.627930,2331.974365 1477.148682,2328.187256 1496.716797,2324.662109 
	C1505.772705,2323.030518 1514.900146,2321.797119 1523.481934,2320.871582 
	C1516.689087,2327.527832 1518.034302,2335.497559 1518.033813,2343.042236 
	C1517.996826,2910.028076 1518.000000,3477.014160 1518.000000,4044.000000 
	C1379.283569,4044.000000 1240.567017,4044.000000 1100.925293,4044.000000 
z"/>
<path fill="#0E46D6" opacity="1.000000" stroke="none" 
	d="
M2602.421875,1763.994385 
	C2608.670898,1768.602539 2606.297363,1774.892212 2604.721191,1780.277344 
	C2603.711914,1783.726196 2603.395508,1786.381592 2604.591309,1789.712524 
	C2605.577148,1792.457886 2605.748047,1795.550293 2605.942383,1798.510986 
	C2606.160156,1801.829590 2605.999756,1805.173218 2605.999756,1808.505981 
	C2606.000244,2553.045898 2606.000000,3297.585693 2606.000000,4043.062744 
	C2411.958252,4044.000000 2217.916504,4044.000000 2022.937256,4043.062744 
	C2022.000000,3877.930420 2022.001831,3713.735352 2021.991821,3549.540283 
	C2021.991455,3544.212402 2021.871948,3538.884766 2022.490967,3533.155762 
	C2035.616089,3530.501953 2048.177734,3528.766357 2060.481689,3525.917725 
	C2190.361328,3495.843262 2294.687744,3392.065430 2323.996094,3262.280029 
	C2334.181152,3217.177246 2341.520264,3171.427490 2349.979736,3125.939941 
	C2363.005371,3055.900635 2375.857422,2985.829346 2388.818604,2915.777832 
	C2402.506104,2841.800049 2416.258789,2767.834717 2429.939209,2693.855713 
	C2442.893066,2623.803223 2455.766113,2553.735596 2468.718750,2483.682861 
	C2482.458008,2409.376709 2496.262695,2335.082764 2510.014160,2260.778809 
	C2522.312256,2194.329834 2534.562256,2127.871826 2546.860107,2061.422852 
	C2560.551514,1987.445068 2574.236572,1913.466187 2588.000244,1839.501953 
	C2592.688232,1814.310547 2597.608154,1789.162354 2602.421875,1763.994385 
z"/>
<path fill="#1149DB" opacity="1.000000" stroke="none" 
	d="
M2021.808105,3533.556885 
	C2021.871948,3538.884766 2021.991455,3544.212402 2021.991821,3549.540283 
	C2022.001831,3713.735352 2022.000000,3877.930420 2022.000000,4043.062744 
	C1854.624878,4044.000000 1687.249756,4044.000000 1518.937256,4044.000000 
	C1518.000000,3477.014160 1517.996826,2910.028076 1518.033813,2343.042236 
	C1518.034302,2335.497559 1516.689087,2327.527832 1524.130371,2320.720703 
	C1526.178589,2320.038818 1527.065186,2319.995850 1528.584229,2319.950928 
	C1530.771118,2319.426025 1532.325317,2318.903320 1534.484131,2318.127441 
	C1536.376587,2317.851074 1537.664551,2317.827393 1539.693848,2317.817383 
	C1542.261719,2317.309814 1544.088379,2316.788574 1546.487183,2316.010742 
	C1547.885376,2315.756348 1548.711426,2315.758789 1550.206787,2315.804932 
	C1552.544800,2315.354980 1554.213501,2314.861328 1556.482666,2314.113770 
	C1558.362671,2313.842773 1559.642456,2313.825684 1561.666260,2313.819824 
	C1564.245728,2313.305664 1566.080933,2312.780273 1568.749268,2311.968994 
	C1573.364502,2311.033203 1577.139648,2310.336426 1580.930664,2309.742188 
	C1594.214600,2307.659668 1607.573608,2305.975098 1620.772705,2303.452637 
	C1635.059082,2300.722656 1649.127686,2296.849121 1663.419922,2294.156738 
	C1679.835205,2291.063965 1696.338135,2288.423828 1712.773315,2285.407227 
	C1718.573853,2284.342529 1724.596558,2284.524414 1730.426025,2283.573486 
	C1740.477051,2281.933350 1750.475098,2279.946045 1760.457764,2277.918945 
	C1765.817871,2276.830322 1771.099487,2275.355957 1777.143555,2274.088867 
	C1779.824097,2274.068359 1781.777466,2274.014648 1783.892334,2274.761719 
	C1782.817749,2280.282959 1781.263306,2284.947510 1780.414917,2289.736816 
	C1778.856323,2298.534180 1777.923096,2307.442627 1776.342896,2316.235596 
	C1774.533447,2326.303955 1772.198242,2336.276367 1770.289795,2346.328369 
	C1768.737061,2354.506348 1767.662109,2362.776611 1766.043457,2370.940186 
	C1763.553955,2383.497070 1760.605469,2395.964111 1758.183105,2408.532959 
	C1756.308350,2418.260986 1755.095947,2428.115479 1753.299683,2437.860352 
	C1751.793335,2446.031738 1749.708496,2454.095947 1748.169800,2462.262207 
	C1746.277466,2472.305176 1744.786255,2482.423340 1742.932861,2492.474365 
	C1741.483154,2500.336182 1739.598022,2508.118652 1738.173584,2515.984863 
	C1736.352783,2526.039795 1734.918335,2536.165039 1733.095337,2546.219727 
	C1731.611694,2554.402344 1729.578125,2562.487549 1728.187378,2570.683838 
	C1726.050781,2583.275146 1724.566162,2595.981934 1722.229614,2608.532715 
	C1719.895386,2621.071533 1716.732300,2633.453369 1714.160889,2645.950928 
	C1712.168701,2655.632812 1710.513550,2665.384766 1708.736206,2675.110352 
	C1707.176147,2683.647217 1705.548218,2692.173584 1704.141357,2700.736084 
	C1702.067261,2713.359619 1700.299561,2726.034668 1698.141724,2738.643311 
	C1696.528076,2748.071777 1694.463379,2757.422607 1692.674683,2766.822266 
	C1690.997070,2775.637939 1689.512207,2784.490723 1687.773682,2793.293945 
	C1685.296143,2805.840332 1682.494019,2818.324707 1680.145508,2830.894287 
	C1677.736084,2843.790039 1675.835571,2856.780273 1673.473022,2869.685303 
	C1671.173706,2882.244873 1668.440430,2894.724609 1666.147949,2907.285156 
	C1664.599487,2915.770508 1663.754395,2924.387451 1662.112671,2932.851807 
	C1659.678345,2945.403076 1656.661987,2957.841309 1654.185669,2970.385254 
	C1652.210571,2980.390869 1650.734741,2990.494141 1648.923950,3000.533691 
	C1646.710693,3012.804688 1644.267334,3025.034912 1642.137817,3037.319824 
	C1640.716309,3045.520020 1639.977051,3053.844971 1638.388916,3062.008301 
	C1635.211914,3078.339844 1631.342041,3094.540771 1628.393311,3110.910156 
	C1626.785889,3119.833740 1626.726196,3129.026367 1625.467407,3138.027588 
	C1624.944824,3141.764160 1623.113525,3145.317383 1621.872559,3148.998535 
	C1621.867798,3149.042969 1621.850952,3149.225830 1621.996338,3150.096191 
	C1622.482666,3157.166992 1622.917603,3163.363770 1623.146240,3169.568359 
	C1623.784546,3186.877197 1621.420410,3204.266357 1625.310669,3221.512695 
	C1626.599976,3227.229004 1625.166382,3233.547363 1626.374756,3239.296875 
	C1629.373779,3253.566650 1632.858398,3267.755859 1636.734497,3281.815674 
	C1642.485474,3302.676270 1651.027344,3322.566162 1660.662354,3341.828857 
	C1668.377686,3357.253906 1677.830078,3371.741943 1688.218872,3385.726807 
	C1711.042480,3416.450195 1736.967651,3443.890137 1767.879883,3466.492432 
	C1821.557007,3505.739990 1881.575684,3528.182129 1948.602051,3534.286133 
	C1969.679443,3536.726562 1989.952759,3537.445312 2011.021729,3533.989990 
	C2015.172729,3533.832520 2018.490479,3533.694824 2021.808105,3533.556885 
z"/>
<path fill="#0E46D7" opacity="1.000000" stroke="none" 
	d="
M1929.999268,1484.000000 
	C1925.876099,1483.867676 1924.032104,1481.636475 1924.049561,1477.618286 
	C1924.065430,1473.952637 1924.002319,1470.286621 1924.002319,1466.620850 
	C1923.999878,979.038757 1924.000000,491.456696 1924.000000,2.937315 
	C2110.041748,2.000000 2296.083740,2.000000 2483.062744,2.933970 
	C2484.000000,191.778046 2483.994629,379.688171 2484.004639,567.598267 
	C2484.006836,611.243774 2484.061523,654.889343 2483.448242,698.894165 
	C2469.092041,701.874268 2455.396484,704.585327 2441.664307,707.098511 
	C2406.664551,713.503601 2371.651611,719.839783 2336.637695,726.166992 
	C2302.567139,732.323730 2268.751953,739.087830 2236.307861,751.972351 
	C2195.517090,768.171692 2160.109863,792.732422 2126.901855,820.610046 
	C2109.107666,835.548218 2094.441406,853.742676 2080.524170,872.448303 
	C2054.278076,907.724609 2034.142700,945.886169 2023.749268,988.868347 
	C2022.189453,995.319458 2020.024292,1001.624146 2017.529175,1008.174072 
	C2013.534912,1010.156067 2014.374146,1012.194885 2016.561523,1014.931335 
	C2016.383789,1016.367737 2016.233521,1017.182800 2015.463623,1018.189697 
	C2010.653687,1020.789612 2013.232788,1023.658997 2014.298218,1027.025635 
	C2014.186279,1028.417847 2014.072144,1029.209473 2013.470947,1030.132568 
	C2009.944336,1032.080200 2011.354004,1033.112427 2013.615356,1034.618164 
	C2013.073975,1036.830444 2012.557739,1038.414795 2011.441895,1040.182861 
	C2007.515869,1042.216919 2008.405884,1044.238892 2010.562012,1047.166504 
	C2009.042847,1056.011841 2007.561646,1064.004761 2005.461182,1072.189819 
	C2000.654663,1074.790161 2003.233154,1077.658936 2004.300781,1081.205566 
	C2003.553833,1085.990479 2002.800659,1089.994385 2001.447021,1094.182129 
	C1997.512207,1096.220093 1998.410156,1098.243286 2000.573730,1101.134277 
	C1999.700195,1106.633423 1998.861694,1111.316528 1997.426270,1116.183838 
	C1993.525269,1118.211548 1994.398682,1120.230225 1996.542236,1123.146851 
	C1995.021484,1131.992798 1993.538696,1139.995605 1991.454102,1148.182129 
	C1987.505493,1150.225708 1988.416016,1152.250366 1990.587158,1155.140503 
	C1989.711548,1160.637085 1988.870972,1165.317993 1987.432373,1170.183228 
	C1983.521729,1172.213135 1984.401855,1174.233154 1986.566650,1176.928955 
	C1986.400757,1178.365845 1986.255737,1179.181519 1985.501953,1180.177979 
	C1981.496826,1182.218140 1982.419067,1184.252197 1984.626465,1187.052612 
	C1984.396851,1189.177124 1984.191528,1190.588623 1983.394287,1192.185791 
	C1979.539429,1194.205078 1980.387329,1196.217163 1982.523071,1198.911133 
	C1982.356812,1200.356812 1982.213135,1201.177490 1981.465820,1202.181152 
	C1977.502563,1204.224731 1978.417358,1206.251709 1980.599609,1209.144531 
	C1979.723633,1214.639648 1978.878784,1219.319214 1977.435303,1224.182861 
	C1973.517456,1226.217285 1974.406006,1228.238403 1976.575562,1230.932861 
	C1976.410400,1232.368042 1976.265137,1233.182495 1975.495483,1234.187134 
	C1970.635620,1236.787720 1973.245483,1239.672241 1974.317871,1243.147583 
	C1974.166992,1245.230957 1974.010132,1246.616577 1973.345215,1248.146606 
	C1972.747192,1249.624023 1972.656982,1250.957031 1972.541626,1252.914307 
	C1972.372314,1254.358276 1972.228271,1255.177979 1971.464355,1256.189575 
	C1966.653687,1258.789307 1969.232788,1261.658936 1970.298096,1265.025635 
	C1970.186035,1266.417725 1970.071899,1267.209473 1969.470703,1268.132568 
	C1965.944336,1270.080200 1967.354004,1271.112427 1969.615234,1272.618164 
	C1969.073975,1274.830444 1968.557617,1276.414673 1967.441772,1278.182617 
	C1963.516602,1280.216431 1964.406372,1282.238525 1966.563354,1285.166260 
	C1965.046509,1294.011719 1963.566284,1302.004761 1961.466064,1310.189331 
	C1956.653198,1312.787354 1959.232788,1315.657837 1960.300903,1319.205566 
	C1959.553833,1323.990479 1958.800659,1327.994507 1957.446289,1332.182617 
	C1953.502563,1334.233643 1954.421143,1336.257080 1956.589722,1339.143066 
	C1955.709839,1344.638794 1954.866455,1349.319214 1953.426147,1354.183838 
	C1949.524780,1356.211060 1950.398682,1358.229858 1952.559570,1360.926025 
	C1952.390381,1362.365112 1952.241333,1363.181519 1951.471436,1364.189087 
	C1946.650879,1366.785522 1949.232788,1369.658325 1950.303223,1373.207275 
	C1949.558960,1377.991577 1948.807495,1381.994873 1947.440308,1386.191162 
	C1942.671631,1388.782349 1945.217529,1391.639893 1946.280029,1395.178467 
	C1945.533203,1399.973999 1944.781738,1403.986450 1943.432373,1408.183228 
	C1939.521729,1410.213135 1940.401855,1412.233154 1942.566650,1414.928955 
	C1942.400757,1416.365845 1942.255737,1417.181519 1941.501953,1418.177979 
	C1937.496826,1420.218140 1938.419067,1422.252197 1940.627197,1425.052490 
	C1940.400269,1427.177002 1940.197144,1428.588501 1939.401367,1430.185303 
	C1935.540283,1432.200928 1936.385498,1434.214355 1938.522949,1436.911133 
	C1938.356812,1438.356812 1938.213013,1439.177490 1937.465820,1440.181152 
	C1933.502563,1442.224731 1934.417358,1444.251709 1936.599854,1447.144653 
	C1935.724121,1452.639771 1934.879028,1457.319214 1933.435181,1462.182861 
	C1929.517456,1464.217285 1930.406006,1466.238403 1932.575439,1468.932861 
	C1932.410278,1470.368042 1932.265015,1471.182617 1931.533691,1472.164062 
	C1927.230957,1474.628906 1928.139160,1476.437866 1931.545166,1478.611572 
	C1931.029785,1480.827148 1930.514404,1482.413574 1929.999268,1484.000000 
z"/>
<path fill="#0C44D3" opacity="1.000000" stroke="none" 
	d="
M2484.092285,698.534851 
	C2484.061523,654.889343 2484.006836,611.243774 2484.004639,567.598267 
	C2483.994629,379.688171 2484.000000,191.778046 2484.000000,2.933970 
	C2622.043945,2.000000 2760.088135,2.000000 2899.065918,2.937315 
	C2900.000000,28.189373 2899.997314,52.504120 2900.000244,76.818863 
	C2900.022217,258.679901 2900.045166,440.540924 2899.419434,622.776855 
	C2888.337646,625.158203 2877.916260,627.228271 2867.469238,629.159851 
	C2823.046631,637.373291 2778.624756,645.587646 2734.187744,653.722534 
	C2676.358398,664.309204 2618.529297,674.896606 2560.672119,685.329895 
	C2535.180664,689.926697 2509.620850,694.144836 2484.092285,698.534851 
z"/>
<path fill="#0A42CF" opacity="1.000000" stroke="none" 
	d="
M2900.067871,622.401978 
	C2900.045166,440.540924 2900.022217,258.679901 2900.000244,76.818863 
	C2899.997314,52.504120 2900.000000,28.189373 2900.000000,2.937315 
	C3015.375244,2.000000 3130.750244,2.000000 3247.062744,2.937315 
	C3248.000000,183.158142 3247.998779,362.441650 3248.006104,541.725159 
	C3248.006348,547.389709 3248.095703,553.054260 3247.482910,559.048035 
	C3202.970703,567.546326 3159.140137,575.829102 3115.262939,583.856201 
	C3057.636719,594.398560 2999.978027,604.765015 2942.322998,615.149475 
	C2928.258545,617.682556 2914.154053,619.990540 2900.067871,622.401978 
z"/>
<path fill="#0840CD" opacity="1.000000" stroke="none" 
	d="
M3248.143555,558.718750 
	C3248.095703,553.054260 3248.006348,547.389709 3248.006104,541.725159 
	C3247.998779,362.441650 3248.000000,183.158142 3248.000000,2.937315 
	C3342.708496,2.000000 3437.416992,2.000000 3533.062744,2.000000 
	C3534.000000,165.355988 3533.985107,328.711975 3534.068604,492.067932 
	C3534.071289,497.325226 3535.081055,502.582001 3534.923096,508.780518 
	C3514.480469,512.476746 3494.629639,514.630005 3475.012207,518.101501 
	C3420.972656,527.664307 3367.044678,537.856018 3313.043457,547.637573 
	C3291.449707,551.549011 3269.779053,555.037659 3248.143555,558.718750 
z"/>
<path fill="#FDFEFF" opacity="1.000000" stroke="none" 
	d="
M8.203239,3811.993408 
	C8.277758,3812.833252 8.352260,3813.673340 8.649311,3815.909668 
	C11.189790,3825.563232 13.507718,3833.820068 15.825653,3842.077148 
	C15.825661,3842.077148 15.899231,3842.104492 15.765627,3842.800293 
	C16.273279,3845.115479 16.914536,3846.735107 17.555803,3848.354492 
	C30.186718,3886.841553 50.325130,3921.084473 77.697594,3950.746826 
	C120.016678,3996.605957 171.948364,4026.008057 233.417358,4037.635742 
	C248.350937,4040.460449 263.692230,4041.129883 279.423035,4043.395020 
	C187.486526,4044.000000 94.973045,4044.000000 2.000000,4044.000000 
	C2.000000,3960.625488 2.000000,3877.250000 2.600106,3792.780762 
	C3.991340,3791.926025 4.782468,3792.164795 5.573604,3792.403320 
	C5.622067,3793.803223 5.670524,3795.203125 5.593679,3797.534668 
	C5.354792,3799.171631 5.599680,3799.680176 6.203041,3799.992188 
	C6.278700,3801.435303 6.354360,3802.878174 6.626736,3805.675781 
	C7.283375,3808.684570 7.743300,3810.339111 8.203239,3811.993408 
z"/>
<path fill="#FEFDFF" opacity="1.000000" stroke="none" 
	d="
M263.062683,2.000000 
	C256.263245,3.262213 248.523346,4.505420 240.790268,5.789698 
	C188.006577,14.555803 141.274078,36.401031 100.971268,71.517281 
	C52.745079,113.537231 22.262596,166.172211 8.944101,228.698914 
	C6.809035,238.722443 5.515422,248.923843 3.721938,259.023346 
	C3.513095,260.199402 2.592579,261.249115 2.000999,263.178711 
	C2.000000,176.812714 2.000000,89.625435 2.000000,2.000000 
	C88.707962,2.000000 175.416672,2.000000 263.062683,2.000000 
z"/>
<path fill="#FDFEFF" opacity="1.000000" stroke="none" 
	d="
M3781.566406,4042.162842 
	C3814.078857,4038.582031 3845.405273,4030.808594 3875.251221,4017.045410 
	C3921.896240,3995.536133 3959.807617,3963.699951 3989.421631,3921.894043 
	C4014.389893,3886.646240 4029.931152,3847.444092 4037.277588,3804.988037 
	C4038.516357,3797.828369 4038.305908,3790.418457 4039.382324,3782.562012 
	C4040.000000,3869.186279 4040.000000,3956.372314 4040.000000,4044.000000 
	C3954.625244,4044.000000 3869.250000,4044.000000 3782.802246,4043.546875 
	C3781.730225,4043.093994 3781.566406,4042.162842 3781.566406,4042.162842 
z"/>
<path fill="#FDFDFE" opacity="1.000000" stroke="none" 
	d="
M4040.000000,263.062683 
	C4038.776123,254.592499 4037.900391,245.124298 4036.270508,235.787613 
	C4027.320068,184.504883 4005.543945,139.186172 3971.500732,99.943825 
	C3931.056152,53.322533 3880.437256,23.142809 3820.361084,9.188383 
	C3807.500244,6.201143 3794.185303,5.169776 3780.539795,2.618674 
	C3866.521240,2.000000 3953.042236,2.000000 4040.000000,2.000000 
	C4040.000000,88.707970 4040.000000,175.416672 4040.000000,263.062683 
z"/>
<path fill="#7799F2" opacity="1.000000" stroke="none" 
	d="
M5.662770,3791.597412 
	C4.782468,3792.164795 3.991340,3791.926025 2.600106,3791.843750 
	C2.000000,3788.571289 2.000000,3785.142578 2.000000,3780.856934 
	C6.927697,3782.318848 5.275794,3786.925049 5.662770,3791.597412 
z"/>
<path fill="#B69DEB" opacity="1.000000" stroke="none" 
	d="
M3780.735352,4042.050781 
	C3781.566406,4042.162842 3781.730225,4043.093994 3781.865234,4043.546875 
	C3776.599854,4044.000000 3771.199951,4044.000000 3764.899902,4044.000000 
	C3768.850098,4039.831543 3774.649902,4042.990967 3780.735352,4042.050781 
z"/>
<path fill="#0097FF" opacity="1.000000" stroke="none" 
	d="
M3247.482910,559.047974 
	C3269.779053,555.037659 3291.449707,551.549011 3313.043457,547.637573 
	C3367.044678,537.856018 3420.972656,527.664307 3475.012207,518.101501 
	C3494.629639,514.630005 3514.480469,512.476746 3535.118652,509.555237 
	C3548.339111,509.518463 3560.669189,509.507904 3572.991943,509.803986 
	C3615.128418,510.816376 3655.274658,520.858337 3693.976807,537.057861 
	C3743.060059,557.602295 3785.081543,588.199280 3820.584961,627.658630 
	C3857.305908,668.470947 3882.702393,715.556519 3897.801514,768.383728 
	C3909.872559,810.617554 3913.031250,853.724182 3909.485596,897.097717 
	C3904.962646,952.430176 3887.624512,1004.074768 3857.946045,1051.104736 
	C3801.970215,1139.806152 3722.307373,1194.435547 3619.225342,1214.132324 
	C3544.673096,1228.377808 3469.955811,1241.758667 3395.313721,1255.533447 
	C3373.384766,1259.580200 3351.461426,1263.656006 3328.775879,1267.954834 
	C3315.230957,1270.306885 3302.413818,1272.247803 3289.665771,1274.567749 
	C3220.917480,1287.079468 3152.177734,1299.640137 3083.451904,1312.274170 
	C3038.287598,1320.576660 2993.166992,1329.114258 2947.999756,1337.400024 
	C2881.232666,1349.648193 2814.442871,1361.771240 2747.660645,1373.936768 
	C2725.072754,1378.051514 2702.475586,1382.111938 2679.890381,1386.240601 
	C2672.370117,1387.615479 2671.395508,1388.758545 2669.965576,1396.437134 
	C2660.889893,1445.181519 2651.788086,1493.921143 2641.788574,1543.065918 
	C2581.878174,1487.407837 2511.971680,1454.728882 2430.447754,1445.287842 
	C2420.914062,1444.612549 2411.999268,1444.288696 2402.080322,1443.927246 
	C2378.390625,1443.440674 2355.878418,1445.203735 2333.554199,1449.267456 
	C2284.493408,1458.197998 2235.432129,1467.126465 2186.380371,1476.106812 
	C2115.421143,1489.098145 2044.478027,1502.178467 1973.509521,1515.119263 
	C1956.861206,1518.155273 1940.138672,1520.785278 1923.450317,1523.602051 
	C1925.648804,1510.964722 1927.847412,1498.327393 1930.022583,1484.844971 
	C1930.514404,1482.413574 1931.029785,1480.827148 1931.702637,1477.874634 
	C1931.946777,1475.004761 1932.033203,1473.500977 1932.119751,1471.997192 
	C1932.265015,1471.182617 1932.410278,1470.368042 1932.906494,1468.360840 
	C1933.516235,1465.445068 1933.775024,1463.721924 1934.033813,1461.998657 
	C1934.879028,1457.319214 1935.724121,1452.639771 1936.921143,1446.566650 
	C1937.538452,1443.447998 1937.803955,1441.723145 1938.069336,1439.998169 
	C1938.213013,1439.177490 1938.356812,1438.356812 1938.860840,1436.345215 
	C1939.478882,1433.436157 1939.736450,1431.718018 1939.993896,1430.000000 
	C1940.197144,1428.588501 1940.400269,1427.177002 1940.949707,1424.473755 
	C1941.567505,1421.453735 1941.839233,1419.725342 1942.110840,1417.997070 
	C1942.255737,1417.181519 1942.400757,1416.365845 1942.899414,1414.358643 
	C1943.512329,1411.444458 1943.771362,1409.721680 1944.030396,1407.999023 
	C1944.781738,1403.986450 1945.533203,1399.973999 1946.674805,1394.562134 
	C1947.395264,1390.774658 1947.725708,1388.386475 1948.056030,1385.998291 
	C1948.807495,1381.994873 1949.558960,1377.991577 1950.694824,1372.585449 
	C1951.416748,1368.787842 1951.754395,1366.392822 1952.092041,1363.997925 
	C1952.241333,1363.181519 1952.390381,1362.365112 1952.891113,1360.355469 
	C1953.502808,1357.441406 1953.763062,1355.720459 1954.023193,1353.999634 
	C1954.866455,1349.319214 1955.709839,1344.638794 1956.915894,1338.567627 
	C1957.534912,1335.450684 1957.791138,1333.724609 1958.047485,1331.998413 
	C1958.800659,1327.994507 1959.553833,1323.990479 1960.692871,1318.584717 
	C1961.414429,1314.787720 1961.750122,1312.392700 1962.085938,1309.997681 
	C1963.566284,1302.004761 1965.046509,1294.011719 1966.892822,1284.593506 
	C1967.519653,1281.445190 1967.780518,1279.722046 1968.041260,1277.999023 
	C1968.557617,1276.414673 1969.073975,1274.830444 1969.751587,1271.962036 
	C1969.927979,1269.785645 1969.942871,1268.893433 1969.957764,1268.001221 
	C1970.071899,1267.209473 1970.186035,1266.417725 1970.690186,1264.404785 
	C1971.414795,1260.788208 1971.749390,1258.392944 1972.083984,1255.997681 
	C1972.228271,1255.177979 1972.372314,1254.358276 1972.856079,1252.434814 
	C1973.414795,1250.221558 1973.634033,1249.111938 1973.853271,1248.002319 
	C1974.010132,1246.616577 1974.166992,1245.230957 1974.708740,1242.523071 
	C1975.435791,1238.799683 1975.777954,1236.398315 1976.119995,1233.997070 
	C1976.265137,1233.182495 1976.410400,1232.368042 1976.906494,1230.360840 
	C1977.516113,1227.445068 1977.774902,1225.721924 1978.033813,1223.998657 
	C1978.878784,1219.319214 1979.723633,1214.639648 1980.920898,1208.566650 
	C1981.538574,1205.448120 1981.804077,1203.723145 1982.069336,1201.998169 
	C1982.213135,1201.177490 1982.356812,1200.356812 1982.860840,1198.345093 
	C1983.476074,1195.436035 1983.731079,1193.718018 1983.986084,1192.000000 
	C1984.191528,1190.588623 1984.396851,1189.177124 1984.948975,1186.473877 
	C1985.567505,1183.453735 1985.839233,1181.725342 1986.110840,1179.997070 
	C1986.255737,1179.181519 1986.400757,1178.365845 1986.899414,1176.358643 
	C1987.512207,1173.444458 1987.771362,1171.721680 1988.030273,1169.999023 
	C1988.870972,1165.317993 1989.711548,1160.637085 1990.913574,1154.565430 
	C1991.535400,1151.449341 1991.795654,1149.723999 1992.055908,1147.998535 
	C1993.538696,1139.995605 1995.021484,1131.992798 1996.873291,1122.576050 
	C1997.502808,1119.441406 1997.762939,1117.720459 1998.023193,1115.999634 
	C1998.861694,1111.316528 1999.700195,1106.633423 2000.906250,1100.562988 
	C2001.531616,1097.449829 2001.789551,1095.723999 2002.047363,1093.998291 
	C2002.800659,1089.994385 2003.553833,1085.990479 2004.692871,1080.584717 
	C2005.412598,1076.787720 2005.746582,1074.392822 2006.080566,1071.997803 
	C2007.561646,1064.004761 2009.042847,1056.011841 2010.891479,1046.593750 
	C2011.519775,1043.445312 2011.780640,1041.722168 2012.041504,1039.999023 
	C2012.557739,1038.414795 2013.073975,1036.830444 2013.751709,1033.962036 
	C2013.927979,1031.785645 2013.942871,1030.893433 2013.958008,1030.001221 
	C2014.072144,1029.209473 2014.186279,1028.417847 2014.690186,1026.404785 
	C2015.414429,1022.788330 2015.748779,1020.393127 2016.083252,1017.997864 
	C2016.233521,1017.182800 2016.383789,1016.367737 2016.899658,1014.362305 
	C2017.556396,1011.446777 2017.847778,1009.721680 2018.139160,1007.996582 
	C2020.024292,1001.624146 2022.189453,995.319458 2023.749268,988.868347 
	C2034.142700,945.886169 2054.278076,907.724609 2080.524170,872.448303 
	C2094.441406,853.742676 2109.107666,835.548218 2126.901855,820.610046 
	C2160.109863,792.732422 2195.517090,768.171692 2236.307861,751.972351 
	C2268.751953,739.087830 2302.567139,732.323730 2336.637695,726.166992 
	C2371.651611,719.839783 2406.664551,713.503601 2441.664307,707.098511 
	C2455.396484,704.585327 2469.092041,701.874268 2483.448242,698.894165 
	C2509.620850,694.144836 2535.180664,689.926697 2560.672119,685.329895 
	C2618.529297,674.896606 2676.358398,664.309204 2734.187744,653.722534 
	C2778.624756,645.587646 2823.046631,637.373291 2867.469238,629.159851 
	C2877.916260,627.228271 2888.337646,625.158203 2899.419434,622.776917 
	C2914.154053,619.990540 2928.258545,617.682556 2942.322998,615.149475 
	C2999.978027,604.765015 3057.636719,594.398560 3115.262939,583.856201 
	C3159.140137,575.829102 3202.970703,567.546326 3247.482910,559.047974 
z"/>
<path fill="#FFFFFF" opacity="1.000000" stroke="none" 
	d="
M1922.701904,1523.817871 
	C1940.138672,1520.785278 1956.861206,1518.155273 1973.509521,1515.119263 
	C2044.478027,1502.178467 2115.421143,1489.098145 2186.380371,1476.106812 
	C2235.432129,1467.126465 2284.493408,1458.197998 2333.554199,1449.267456 
	C2355.878418,1445.203735 2378.390625,1443.440674 2402.726318,1444.159424 
	C2413.272949,1444.832520 2422.169678,1445.235962 2431.066406,1445.639404 
	C2511.971680,1454.728882 2581.878174,1487.407837 2641.482666,1543.787109 
	C2639.228271,1560.769043 2636.538574,1577.463867 2633.487793,1594.092163 
	C2623.609619,1647.933105 2613.600098,1701.750000 2603.634277,1755.574829 
	C2603.211670,1757.856934 2602.720947,1760.126343 2602.341797,1763.197998 
	C2597.608154,1789.162354 2592.688232,1814.310547 2588.000244,1839.501953 
	C2574.236572,1913.466187 2560.551514,1987.445068 2546.860107,2061.422852 
	C2534.562256,2127.871826 2522.312256,2194.329834 2510.014160,2260.778809 
	C2496.262695,2335.082764 2482.458008,2409.376709 2468.718750,2483.682861 
	C2455.766113,2553.735596 2442.893066,2623.803223 2429.939209,2693.855713 
	C2416.258789,2767.834717 2402.506104,2841.800049 2388.818604,2915.777832 
	C2375.857422,2985.829346 2363.005371,3055.900635 2349.979736,3125.939941 
	C2341.520264,3171.427490 2334.181152,3217.177246 2323.996094,3262.280029 
	C2294.687744,3392.065430 2190.361328,3495.843262 2060.481689,3525.917725 
	C2048.177734,3528.766357 2035.616089,3530.501953 2022.491089,3533.155762 
	C2018.490479,3533.694824 2015.172729,3533.832520 2010.077393,3533.811768 
	C1988.136719,3533.771973 1967.973877,3533.890625 1947.811035,3534.009521 
	C1881.575684,3528.182129 1821.557007,3505.739990 1767.879883,3466.492432 
	C1736.967651,3443.890137 1711.042480,3416.450195 1688.218872,3385.726807 
	C1677.830078,3371.741943 1668.377686,3357.253906 1660.662354,3341.828857 
	C1651.027344,3322.566162 1642.485474,3302.676270 1636.734497,3281.815674 
	C1632.858398,3267.755859 1629.373779,3253.566650 1626.374756,3239.296875 
	C1625.166382,3233.547363 1626.599976,3227.229004 1625.310669,3221.512695 
	C1621.420410,3204.266357 1623.784546,3186.877197 1623.146240,3169.568359 
	C1622.917603,3163.363770 1622.482666,3157.166992 1622.157959,3150.099121 
	C1622.173950,3149.231934 1621.877197,3148.954102 1621.877197,3148.954102 
	C1623.113525,3145.317383 1624.944824,3141.764160 1625.467407,3138.027588 
	C1626.726196,3129.026367 1626.785889,3119.833740 1628.393311,3110.910156 
	C1631.342041,3094.540771 1635.211914,3078.339844 1638.388916,3062.008301 
	C1639.977051,3053.844971 1640.716309,3045.520020 1642.137817,3037.319824 
	C1644.267334,3025.034912 1646.710693,3012.804688 1648.923950,3000.533691 
	C1650.734741,2990.494141 1652.210571,2980.390869 1654.185669,2970.385254 
	C1656.661987,2957.841309 1659.678345,2945.403076 1662.112671,2932.851807 
	C1663.754395,2924.387451 1664.599487,2915.770508 1666.147949,2907.285156 
	C1668.440430,2894.724609 1671.173706,2882.244873 1673.473022,2869.685303 
	C1675.835571,2856.780273 1677.736084,2843.790039 1680.145508,2830.894287 
	C1682.494019,2818.324707 1685.296143,2805.840332 1687.773682,2793.293945 
	C1689.512207,2784.490723 1690.997070,2775.637939 1692.674683,2766.822266 
	C1694.463379,2757.422607 1696.528076,2748.071777 1698.141724,2738.643311 
	C1700.299561,2726.034668 1702.067261,2713.359619 1704.141357,2700.736084 
	C1705.548218,2692.173584 1707.176147,2683.647217 1708.736206,2675.110352 
	C1710.513550,2665.384766 1712.168701,2655.632812 1714.160889,2645.950928 
	C1716.732300,2633.453369 1719.895386,2621.071533 1722.229614,2608.532715 
	C1724.566162,2595.981934 1726.050781,2583.275146 1728.187378,2570.683838 
	C1729.578125,2562.487549 1731.611694,2554.402344 1733.095337,2546.219727 
	C1734.918335,2536.165039 1736.352783,2526.039795 1738.173584,2515.984863 
	C1739.598022,2508.118652 1741.483154,2500.336182 1742.932861,2492.474365 
	C1744.786255,2482.423340 1746.277466,2472.305176 1748.169800,2462.262207 
	C1749.708496,2454.095947 1751.793335,2446.031738 1753.299683,2437.860352 
	C1755.095947,2428.115479 1756.308350,2418.260986 1758.183105,2408.532959 
	C1760.605469,2395.964111 1763.553955,2383.497070 1766.043457,2370.940186 
	C1767.662109,2362.776611 1768.737061,2354.506348 1770.289795,2346.328369 
	C1772.198242,2336.276367 1774.533447,2326.303955 1776.342896,2316.235596 
	C1777.923096,2307.442627 1778.856323,2298.534180 1780.414917,2289.736816 
	C1781.263306,2284.947510 1782.817749,2280.282959 1783.768066,2274.151611 
	C1781.127197,2273.179199 1778.771851,2273.617432 1776.416626,2274.055664 
	C1771.099487,2275.355957 1765.817871,2276.830322 1760.457764,2277.918945 
	C1750.475098,2279.946045 1740.477051,2281.933350 1730.426025,2283.573486 
	C1724.596558,2284.524414 1718.573853,2284.342529 1712.773315,2285.407227 
	C1696.338135,2288.423828 1679.835205,2291.063965 1663.419922,2294.156738 
	C1649.127686,2296.849121 1635.059082,2300.722656 1620.772705,2303.452637 
	C1607.573608,2305.975098 1594.214600,2307.659668 1580.930664,2309.742188 
	C1577.139648,2310.336426 1573.364502,2311.033203 1568.018311,2311.867676 
	C1564.610352,2312.637939 1562.766235,2313.223389 1560.922119,2313.808594 
	C1559.642456,2313.825684 1558.362671,2313.842773 1555.818115,2314.009277 
	C1552.881226,2314.692627 1551.209351,2315.226807 1549.537476,2315.761230 
	C1548.711426,2315.758789 1547.885376,2315.756348 1545.761475,2315.911621 
	C1542.626465,2316.647461 1540.789551,2317.225830 1538.952515,2317.803955 
	C1537.664551,2317.827393 1536.376587,2317.851074 1533.830078,2318.020996 
	C1531.031616,2318.762939 1529.491577,2319.357910 1527.951660,2319.953125 
	C1527.065186,2319.995850 1526.178589,2320.038818 1524.643677,2320.232422 
	C1514.900146,2321.797119 1505.772705,2323.030518 1496.716797,2324.662109 
	C1477.148682,2328.187256 1457.627930,2331.974365 1438.068359,2335.548584 
	C1410.304199,2340.622070 1382.511719,2345.541504 1354.750732,2350.632080 
	C1306.146240,2359.544678 1257.562988,2368.573730 1208.957520,2377.480469 
	C1185.875000,2381.710449 1162.741577,2385.663818 1139.670166,2389.951904 
	C1126.942505,2392.317871 1114.295654,2395.117920 1100.798828,2397.866455 
	C1082.616333,2400.942871 1065.226074,2403.754883 1047.884033,2406.839111 
	C1027.970703,2410.381104 1008.085693,2414.086670 988.214661,2417.859863 
	C956.878235,2423.810547 925.609741,2430.129395 894.229065,2435.833984 
	C848.808594,2444.090820 803.288147,2451.796631 757.857605,2459.999512 
	C703.893188,2469.742432 649.994873,2479.851562 596.035217,2489.621582 
	C572.586487,2493.867432 549.056213,2497.662598 524.776001,2501.922607 
	C523.108887,2502.081543 522.228638,2501.979980 519.746094,2501.723633 
	C497.427155,2501.674072 476.710510,2501.779541 455.993866,2501.885254 
	C382.565491,2494.959473 317.254700,2468.055176 260.787964,2420.761719 
	C190.942398,2362.263184 149.202850,2287.377686 136.508942,2197.276611 
	C110.523270,2012.830811 230.652878,1840.352051 412.388794,1800.730835 
	C452.686768,1791.945312 493.510834,1785.570068 534.098450,1778.116333 
	C568.465759,1771.804932 602.841370,1765.538452 637.862061,1758.804688 
	C648.352844,1756.803345 658.231140,1755.448242 668.030762,1753.662109 
	C716.632812,1744.802979 765.212646,1735.821655 813.803223,1726.899292 
	C861.437927,1718.152710 909.071350,1709.398926 956.714050,1700.696167 
	C1010.623169,1690.848877 1064.547974,1681.087646 1118.455200,1671.229370 
	C1187.407837,1658.619751 1256.349731,1645.950562 1325.953369,1632.872070 
	C1328.655396,1632.249756 1330.700317,1632.062500 1334.029907,1631.700684 
	C1336.351562,1631.089844 1337.388550,1630.653564 1338.425537,1630.217285 
	C1343.816895,1629.437012 1349.208130,1628.656860 1356.001953,1627.692139 
	C1359.396240,1626.953003 1361.388062,1626.398315 1363.379883,1625.843750 
	C1371.090820,1624.556519 1378.801636,1623.269409 1387.947266,1621.809570 
	C1391.417725,1621.053223 1393.453369,1620.469604 1395.489014,1619.886230 
	C1396.556152,1619.863525 1397.623291,1619.840942 1400.019165,1619.634888 
	C1402.810425,1618.956177 1404.273071,1618.461060 1405.735596,1617.965820 
	C1406.728882,1617.956177 1407.722168,1617.946655 1410.049805,1617.774902 
	C1413.411255,1617.034180 1415.438477,1616.455566 1417.465698,1615.876953 
	C1418.544556,1615.851929 1419.623535,1615.826782 1422.030029,1615.610840 
	C1424.802979,1614.930420 1426.248169,1614.441040 1427.693359,1613.951660 
	C1436.761719,1612.521973 1445.848999,1611.201294 1454.895020,1609.642090 
	C1481.085571,1605.128052 1507.298218,1600.727661 1533.431396,1595.899048 
	C1577.434448,1587.768555 1621.365234,1579.246704 1665.363037,1571.087280 
	C1683.179688,1567.783203 1701.133911,1565.221680 1718.953125,1561.929932 
	C1755.458740,1555.186768 1791.904907,1548.121826 1828.395386,1541.295776 
	C1859.567017,1535.464600 1890.766479,1529.781982 1922.701904,1523.817871 
z"/>
<path fill="#B69DEB" opacity="1.000000" stroke="none" 
	d="
M456.763855,2502.172852 
	C476.710510,2501.779541 497.427155,2501.674072 519.076965,2501.727051 
	C499.214630,2505.328369 478.381378,2504.670654 456.763855,2502.172852 
z"/>
<path fill="#7799F2" opacity="1.000000" stroke="none" 
	d="
M15.874640,3841.288818 
	C13.507718,3833.820068 11.189790,3825.563232 8.831498,3816.515137 
	C11.168633,3823.982910 13.546133,3832.241699 15.874640,3841.288818 
z"/>
<path fill="#7799F2" opacity="1.000000" stroke="none" 
	d="
M8.378649,3811.539062 
	C7.743300,3810.339111 7.283375,3808.684570 6.806609,3806.375732 
	C7.377869,3807.509033 7.965972,3809.296631 8.378649,3811.539062 
z"/>
<path fill="#7799F2" opacity="1.000000" stroke="none" 
	d="
M17.649740,3847.693115 
	C16.914536,3846.735107 16.273279,3845.115479 15.736442,3842.826660 
	C16.475136,3843.781982 17.109413,3845.406738 17.649740,3847.693115 
z"/>
<path fill="#7799F2" opacity="1.000000" stroke="none" 
	d="
M6.396937,3799.754883 
	C5.599680,3799.680176 5.354792,3799.171631 5.670045,3798.231201 
	C6.459648,3798.314453 6.699356,3798.821533 6.396937,3799.754883 
z"/>
<path fill="#1851E8" opacity="1.000000" stroke="none" 
	d="
M1362.751831,1625.823975 
	C1361.388062,1626.398315 1359.396240,1626.953003 1356.788818,1627.409790 
	C1358.156860,1626.809326 1360.140381,1626.306763 1362.751831,1625.823975 
z"/>
<path fill="#1851E8" opacity="1.000000" stroke="none" 
	d="
M1394.844360,1619.860596 
	C1393.453369,1620.469604 1391.417725,1621.053223 1388.747803,1621.537354 
	C1390.142212,1620.903687 1392.171021,1620.369385 1394.844360,1619.860596 
z"/>
<path fill="#1851E8" opacity="1.000000" stroke="none" 
	d="
M1416.823730,1615.853027 
	C1415.438477,1616.455566 1413.411255,1617.034180 1410.752930,1617.516235 
	C1412.141846,1616.889526 1414.161865,1616.359375 1416.823730,1615.853027 
z"/>
<path fill="#1851E8" opacity="1.000000" stroke="none" 
	d="
M1405.150635,1617.934570 
	C1404.273071,1618.461060 1402.810425,1618.956177 1400.773560,1619.354980 
	C1401.654785,1618.806885 1403.110229,1618.355103 1405.150635,1617.934570 
z"/>
<path fill="#1851E8" opacity="1.000000" stroke="none" 
	d="
M1427.115356,1613.922363 
	C1426.248169,1614.441040 1424.802979,1614.930420 1422.791504,1615.324707 
	C1423.662598,1614.784180 1425.099976,1614.338745 1427.115356,1613.922363 
z"/>
<path fill="#144DE2" opacity="1.000000" stroke="none" 
	d="
M1337.862305,1630.202148 
	C1337.388550,1630.653564 1336.351562,1631.089844 1334.748413,1631.424316 
	C1335.221313,1630.943970 1336.260254,1630.565430 1337.862305,1630.202148 
z"/>
<path fill="#B69DEB" opacity="1.000000" stroke="none" 
	d="
M1948.602051,3534.286133 
	C1967.973877,3533.890625 1988.136719,3533.771973 2009.243896,3533.831299 
	C1989.952759,3537.445312 1969.679443,3536.726562 1948.602051,3534.286133 
z"/>
<path fill="#1851E8" opacity="1.000000" stroke="none" 
	d="
M1777.143555,2274.088867 
	C1778.771851,2273.617432 1781.127197,2273.179199 1783.606689,2273.351074 
	C1781.777466,2274.014648 1779.824097,2274.068359 1777.143555,2274.088867 
z"/>
<path fill="#124BDE" opacity="1.000000" stroke="none" 
	d="
M1528.584229,2319.950928 
	C1529.491577,2319.357910 1531.031616,2318.762939 1533.225586,2318.273926 
	C1532.325317,2318.903320 1530.771118,2319.426025 1528.584229,2319.950928 
z"/>
<path fill="#124BDE" opacity="1.000000" stroke="none" 
	d="
M1539.693848,2317.817383 
	C1540.789551,2317.225830 1542.626465,2316.647461 1545.189209,2316.168457 
	C1544.088379,2316.788574 1542.261719,2317.309814 1539.693848,2317.817383 
z"/>
<path fill="#124BDE" opacity="1.000000" stroke="none" 
	d="
M1550.206787,2315.804688 
	C1551.209351,2315.226807 1552.881226,2314.692627 1555.217773,2314.263184 
	C1554.213501,2314.861328 1552.544800,2315.354980 1550.206787,2315.804688 
z"/>
<path fill="#124BDE" opacity="1.000000" stroke="none" 
	d="
M1561.666260,2313.819824 
	C1562.766235,2313.223389 1564.610352,2312.637939 1567.185303,2312.153809 
	C1566.080933,2312.780273 1564.245728,2313.305664 1561.666260,2313.819824 
z"/>
<path fill="#1851E8" opacity="1.000000" stroke="none" 
	d="
M1621.872559,3148.998535 
	C1621.877197,3148.954102 1622.173950,3149.231934 1622.012451,3149.229004 
	C1621.850952,3149.225830 1621.867798,3149.042969 1621.872559,3148.998535 
z"/>
<path fill="#114ADC" opacity="1.000000" stroke="none" 
	d="
M1971.464233,1256.189575 
	C1971.749390,1258.392944 1971.414795,1260.788208 1970.687988,1263.804199 
	C1969.232788,1261.658936 1966.653687,1258.789307 1971.464233,1256.189575 
z"/>
<path fill="#114ADC" opacity="1.000000" stroke="none" 
	d="
M1961.466064,1310.189331 
	C1961.750122,1312.392700 1961.414429,1314.787720 1960.686646,1317.803589 
	C1959.232788,1315.657837 1956.653198,1312.787354 1961.466064,1310.189331 
z"/>
<path fill="#114ADC" opacity="1.000000" stroke="none" 
	d="
M1951.471436,1364.189087 
	C1951.754395,1366.392822 1951.416748,1368.787842 1950.687500,1371.804565 
	C1949.232788,1369.658325 1946.650879,1366.785522 1951.471436,1364.189087 
z"/>
<path fill="#114ADC" opacity="1.000000" stroke="none" 
	d="
M1947.440308,1386.191162 
	C1947.725708,1388.386475 1947.395264,1390.774658 1946.670166,1393.779175 
	C1945.217529,1391.639893 1942.671631,1388.782349 1947.440308,1386.191162 
z"/>
<path fill="#114ADC" opacity="1.000000" stroke="none" 
	d="
M2005.461182,1072.189819 
	C2005.746582,1074.392822 2005.412598,1076.787720 2004.686646,1079.803589 
	C2003.233154,1077.658936 2000.654663,1074.790161 2005.461182,1072.189819 
z"/>
<path fill="#114ADC" opacity="1.000000" stroke="none" 
	d="
M1975.495483,1234.187134 
	C1975.777954,1236.398315 1975.435791,1238.799683 1974.702881,1241.825439 
	C1973.245483,1239.672241 1970.635620,1236.787720 1975.495483,1234.187134 
z"/>
<path fill="#114ADC" opacity="1.000000" stroke="none" 
	d="
M2015.463623,1018.189697 
	C2015.748779,1020.393127 2015.414429,1022.788330 2014.687988,1025.804321 
	C2013.232788,1023.658997 2010.653687,1020.789612 2015.463623,1018.189697 
z"/>
<path fill="#114ADC" opacity="1.000000" stroke="none" 
	d="
M1983.394287,1192.185791 
	C1983.731079,1193.718018 1983.476074,1195.436035 1982.883301,1197.720093 
	C1980.387329,1196.217163 1979.539429,1194.205078 1983.394287,1192.185791 
z"/>
<path fill="#114ADC" opacity="1.000000" stroke="none" 
	d="
M1985.502075,1180.177979 
	C1985.839233,1181.725342 1985.567505,1183.453735 1984.973389,1185.760742 
	C1982.419067,1184.252197 1981.496826,1182.218140 1985.502075,1180.177979 
z"/>
<path fill="#114ADC" opacity="1.000000" stroke="none" 
	d="
M1987.432373,1170.183228 
	C1987.771362,1171.721680 1987.512207,1173.444458 1986.920410,1175.737305 
	C1984.401855,1174.233154 1983.521729,1172.213135 1987.432373,1170.183228 
z"/>
<path fill="#114ADC" opacity="1.000000" stroke="none" 
	d="
M1991.454102,1148.182129 
	C1991.795654,1149.723999 1991.535400,1151.449341 1990.948608,1153.749878 
	C1988.416016,1152.250366 1987.505493,1150.225708 1991.454102,1148.182129 
z"/>
<path fill="#114ADC" opacity="1.000000" stroke="none" 
	d="
M1997.426270,1116.183838 
	C1997.762939,1117.720459 1997.502808,1119.441406 1996.911377,1121.733032 
	C1994.398682,1120.230225 1993.525269,1118.211548 1997.426270,1116.183838 
z"/>
<path fill="#114ADC" opacity="1.000000" stroke="none" 
	d="
M1981.465820,1202.181152 
	C1981.804077,1203.723145 1981.538574,1205.448120 1980.951782,1207.750977 
	C1978.417358,1206.251709 1977.502563,1204.224731 1981.465820,1202.181152 
z"/>
<path fill="#114ADC" opacity="1.000000" stroke="none" 
	d="
M2001.447021,1094.182129 
	C2001.789551,1095.723999 2001.531616,1097.449829 2000.941406,1099.746948 
	C1998.410156,1098.243286 1997.512207,1096.220093 2001.447021,1094.182129 
z"/>
<path fill="#114ADC" opacity="1.000000" stroke="none" 
	d="
M2011.441895,1040.182861 
	C2011.780640,1041.722168 2011.519775,1043.445312 2010.929443,1045.741211 
	C2008.405884,1044.238892 2007.515869,1042.216919 2011.441895,1040.182861 
z"/>
<path fill="#114ADC" opacity="1.000000" stroke="none" 
	d="
M1931.533447,1472.164062 
	C1932.033203,1473.500977 1931.946777,1475.004761 1931.702759,1477.245605 
	C1928.139160,1476.437866 1927.230957,1474.628906 1931.533447,1472.164062 
z"/>
<path fill="#114ADC" opacity="1.000000" stroke="none" 
	d="
M1933.435181,1462.182861 
	C1933.775024,1463.721924 1933.516235,1465.445068 1932.926514,1467.740234 
	C1930.406006,1466.238403 1929.517456,1464.217285 1933.435181,1462.182861 
z"/>
<path fill="#114ADC" opacity="1.000000" stroke="none" 
	d="
M1977.435059,1224.182861 
	C1977.774902,1225.721924 1977.516113,1227.445068 1976.926392,1229.740234 
	C1974.406006,1228.238403 1973.517456,1226.217285 1977.435059,1224.182861 
z"/>
<path fill="#114ADC" opacity="1.000000" stroke="none" 
	d="
M1937.465820,1440.181152 
	C1937.803955,1441.723145 1937.538452,1443.447998 1936.951660,1445.750977 
	C1934.417358,1444.251709 1933.502563,1442.224731 1937.465820,1440.181152 
z"/>
<path fill="#114ADC" opacity="1.000000" stroke="none" 
	d="
M1939.401367,1430.185303 
	C1939.736450,1431.718018 1939.478882,1433.436157 1938.883423,1435.720215 
	C1936.385498,1434.214355 1935.540283,1432.200928 1939.401367,1430.185303 
z"/>
<path fill="#114ADC" opacity="1.000000" stroke="none" 
	d="
M1941.502197,1418.177979 
	C1941.839233,1419.725342 1941.567505,1421.453735 1940.973389,1423.760742 
	C1938.419067,1422.252197 1937.496826,1420.218140 1941.502197,1418.177979 
z"/>
<path fill="#114ADC" opacity="1.000000" stroke="none" 
	d="
M1943.432373,1408.183228 
	C1943.771362,1409.721680 1943.512329,1411.444458 1942.920410,1413.737305 
	C1940.401855,1412.233154 1939.521729,1410.213135 1943.432373,1408.183228 
z"/>
<path fill="#114ADC" opacity="1.000000" stroke="none" 
	d="
M1953.426270,1354.183838 
	C1953.763062,1355.720459 1953.502808,1357.441406 1952.911133,1359.732910 
	C1950.398682,1358.229858 1949.524780,1356.211060 1953.426270,1354.183838 
z"/>
<path fill="#114ADC" opacity="1.000000" stroke="none" 
	d="
M1957.446289,1332.182617 
	C1957.791138,1333.724609 1957.534912,1335.450684 1956.952515,1337.752197 
	C1954.421143,1336.257080 1953.502563,1334.233643 1957.446289,1332.182617 
z"/>
<path fill="#114ADC" opacity="1.000000" stroke="none" 
	d="
M1967.441895,1278.182617 
	C1967.780518,1279.722046 1967.519653,1281.445190 1966.929199,1283.740967 
	C1964.406372,1282.238525 1963.516602,1280.216431 1967.441895,1278.182617 
z"/>
<path fill="#114ADC" opacity="1.000000" stroke="none" 
	d="
M2017.529297,1008.174072 
	C2017.847778,1009.721680 2017.556396,1011.446777 2016.927002,1013.740906 
	C2014.374146,1012.194885 2013.534912,1010.156067 2017.529297,1008.174072 
z"/>
<path fill="#114ADC" opacity="1.000000" stroke="none" 
	d="
M2013.470825,1030.132568 
	C2013.942871,1030.893433 2013.927979,1031.785645 2013.776611,1033.333984 
	C2011.354004,1033.112427 2009.944336,1032.080200 2013.470825,1030.132568 
z"/>
<path fill="#114ADC" opacity="1.000000" stroke="none" 
	d="
M1969.470825,1268.132568 
	C1969.942871,1268.893433 1969.927979,1269.785645 1969.776611,1271.333984 
	C1967.354004,1271.112427 1965.944336,1270.080200 1969.470825,1268.132568 
z"/>
<path fill="#114ADC" opacity="1.000000" stroke="none" 
	d="
M1973.345215,1248.146606 
	C1973.634033,1249.111938 1973.414795,1250.221558 1972.881226,1251.810669 
	C1972.656982,1250.957031 1972.747192,1249.624023 1973.345215,1248.146606 
z"/>
<path fill="#7799F2" opacity="1.000000" stroke="none" 
	d="
M2430.447754,1445.287842 
	C2422.169678,1445.235962 2413.272949,1444.832520 2403.730225,1444.197021 
	C2411.999268,1444.288696 2420.914062,1444.612549 2430.447754,1445.287842 
z"/>
</svg>